<?xml version="1.0" encoding="UTF-8"?>
<svg width="198px" height="37px" viewBox="0 0 198 37" version="1.1" xmlns="http://www.w3.org/2000/svg" xmlns:xlink="http://www.w3.org/1999/xlink">
    <!-- Generator: Sketch 41.2 (35397) - http://www.bohemiancoding.com/sketch -->
    <title>Group 23</title>
    <desc>Created with Sketch.</desc>
    <defs></defs>
    <g id="Page-1" stroke="none" stroke-width="1" fill="none" fill-rule="evenodd">
        <g id="iPhone-SE" transform="translate(-20.000000, -16.000000)">
            <g id="Group-23" transform="translate(20.000000, 16.000000)">
                <g id="Group-22">
                    <g id="connectors" opacity="0.2" transform="translate(10.356241, 10.504521)" fill="#F94647">
                        <path d="M22.8080639,1.87419867 C22.8080639,1.87419867 26.6342511,6.67361751 22.8080639,14.8009911 L32.9295213,14.8009911 C32.9295213,14.8009911 28.7329294,7.34228552 32.9295213,1.87419867 L22.8080639,1.87419867 Z" id="Path-4" transform="translate(27.868793, 8.337595) rotate(-405.000000) translate(-27.868793, -8.337595) "></path>
                        <path d="M3.23991286,1.87419867 C3.23991286,1.87419867 7.06610001,6.67361751 3.23991286,14.8009911 L13.3613703,14.8009911 C13.3613703,14.8009911 9.1647784,7.34228552 13.3613703,1.87419867 L3.23991286,1.87419867 Z" id="Path-4" transform="translate(8.300642, 8.337595) rotate(-315.000000) translate(-8.300642, -8.337595) "></path>
                    </g>
                    <g id="icon" transform="translate(38.613983, 19.118229)">
                        <path d="M8.6109088,17.3772555 C13.323341,17.3772555 17.1435221,13.5254058 17.1435221,8.77390843 C17.1435221,4.02241106 13.323341,0.170561381 8.6109088,0.170561381 C3.89847662,0.170561381 0.0782955326,4.02241106 0.0782955326,8.77390843 C0.0782955326,13.5254058 3.89847662,17.3772555 8.6109088,17.3772555 Z" id="Oval-19" fill-opacity="0.7" fill="#E73536" transform="translate(8.610909, 8.773908) rotate(-90.000000) translate(-8.610909, -8.773908) "></path>
                        <path d="M8.57024008,6.04281193 C8.37594238,6.28311506 8.19954448,6.50125157 8.00571206,6.74093347 L8.56441032,6.74093347 L9.13523337,6.74093347 C8.9405525,6.5003762 8.76404512,6.28229617 8.57024008,6.04281193 L8.57024008,6.04281193 Z M10.5509326,8.27243528 C10.6592893,7.96560405 10.7558223,7.69234749 10.8588967,7.40045401 C10.5566528,7.34702822 10.279808,7.29809222 9.98383179,7.24579594 C10.1638425,7.57417256 10.3286904,7.8750174 10.4937025,8.17577752 C10.5047598,8.19593926 10.5170762,8.21536682 10.5509326,8.27243528 L10.5509326,8.27243528 Z M7.1629434,7.24212503 C6.85552661,7.29772513 6.58018715,7.34750826 6.28163815,7.40149881 C6.38561575,7.69471946 6.482313,7.96746774 6.58902757,8.26836905 C6.78658227,7.91511498 6.96640138,7.59354365 7.1629434,7.24212503 L7.1629434,7.24212503 Z M9.13630079,10.792992 L8.00357723,10.792992 C8.19973607,11.033634 8.37922674,11.2538601 8.57136223,11.4895887 C8.7653315,11.2504151 8.94241364,11.0320527 9.13630079,10.792992 L9.13630079,10.792992 Z M10.5515073,9.26521758 C10.3537337,9.6196294 10.1753651,9.93928057 9.97942527,10.2904168 C10.2858567,10.2351273 10.5643985,10.1848924 10.8598547,10.1315795 C10.7546454,9.83601517 10.6582493,9.56513057 10.5515073,9.26521758 L10.5515073,9.26521758 Z M6.58858965,9.26434221 C6.48119084,9.56823672 6.38536942,9.83946017 6.28166552,10.1329632 C6.5800503,10.1859654 6.85700458,10.2351556 7.16097278,10.2891743 C6.96308964,9.93487548 6.78494008,9.61590202 6.58858965,9.26434221 L6.58858965,9.26434221 Z M8.86235718,5.73883271 C9.05550536,5.98094306 9.25399062,6.18784094 9.40288194,6.4274946 C9.57052153,6.69736264 9.77059424,6.83793009 10.0900263,6.84981817 C10.3780654,6.86054851 10.6637506,6.93839995 10.978694,6.99137394 C11.0229235,6.6908962 11.0798252,6.39214096 11.1077423,6.09056195 C11.1368363,5.77627595 11.1303223,5.45964622 11.0076512,5.16052389 C10.8875802,4.86778329 10.6789134,4.73644958 10.3786401,4.78620447 C9.74930059,4.89045819 9.31398507,5.32469809 8.86235718,5.73883271 L8.86235718,5.73883271 Z M8.28195473,5.71658138 C8.02760785,5.5133544 7.77564213,5.29024805 7.50169852,5.10105522 C7.32664174,4.98016948 7.12635007,4.88464122 6.92455307,4.82130398 C6.47755067,4.68099067 6.1875684,4.86162746 6.07921164,5.33150338 C5.94975283,5.89275661 6.05712427,6.44054044 6.17467726,6.9821402 C6.19627197,6.98770304 6.20544083,6.99306821 6.21362438,6.99174103 C6.61387928,6.92738723 7.01413419,6.86306167 7.41403328,6.79636414 C7.44241569,6.7916202 7.47654574,6.77608945 7.49359708,6.75383811 C7.75032513,6.419108 8.00464465,6.08240124 8.28195473,5.71658138 L8.28195473,5.71658138 Z M11.2652004,10.0168214 C11.3550004,9.98810361 11.450904,9.96141895 11.5440705,9.92691244 C11.9739121,9.76767985 12.3968565,9.59271884 12.7253753,9.24793609 C13.0245538,8.93396071 13.0312321,8.6069395 12.7323273,8.29463014 C12.3252299,7.86928514 11.7944214,7.68675641 11.2661309,7.51634168 C11.1046769,7.93081516 10.9484505,8.3296167 10.7953716,8.72968893 C10.7853816,8.75580884 10.7924704,8.79455101 10.8032541,8.8226758 C10.9534865,9.2146438 11.1057717,9.60573644 11.2652004,10.0168214 L11.2652004,10.0168214 Z M5.87544402,10.0169343 C6.0344074,9.60762836 6.18707574,9.21670515 6.33687026,8.8246242 C6.34891294,8.79313912 6.35263523,8.74903178 6.34103046,8.71861974 C6.18986745,8.32255726 6.03522849,7.92790667 5.87601878,7.51891131 C5.41560522,7.656062 4.96020031,7.82673087 4.57103015,8.14135572 C4.06055735,8.55405022 4.06329432,8.98783831 4.5759567,9.3974549 C4.96345731,9.70708167 5.41555048,9.87509619 5.87544402,10.0169343 L5.87544402,10.0169343 Z M10.9655292,10.5470978 C10.6160725,10.6038839 10.2856652,10.678601 9.95167236,10.7042973 C9.73602627,10.7209011 9.61204141,10.8146504 9.49268202,10.9874935 C9.30087497,11.2651834 9.08071287,11.5220339 8.8577317,11.8066138 C9.07354201,11.9871941 9.27709067,12.1849147 9.50685954,12.3417189 C9.72091818,12.4878209 9.95298611,12.6200865 10.1946882,12.7057033 C10.6490257,12.8666301 10.9524738,12.6790751 11.0625001,12.1987512 C11.189961,11.6423831 11.0842043,11.0990044 10.9655292,10.5470978 L10.9655292,10.5470978 Z M6.171475,10.5422692 C6.13384162,10.7484893 6.09070693,10.9447416 6.06339194,11.1433094 C6.01256636,11.5124895 5.98859047,11.8835051 6.08933844,12.2485343 C6.20470185,12.6666222 6.4715567,12.8341567 6.87673815,12.7285476 C7.44556321,12.5802712 7.86363581,12.1880773 8.27273113,11.7968718 C8.03907576,11.4951515 7.80689836,11.2113623 7.59396188,10.9129459 C7.50158904,10.7835041 7.40606869,10.7122886 7.24809062,10.7165242 C7.14923116,10.7191786 7.04927692,10.6944706 6.9504722,10.6777821 C6.69587899,10.6348042 6.44166895,10.5894262 6.171475,10.5422692 L6.171475,10.5422692 Z M8.56774943,7.15464453 C8.30801071,7.16658909 8.04827199,7.1739309 7.78949121,7.19429031 C7.73705081,7.19841302 7.6671759,7.23884945 7.64098307,7.28439692 C7.37388189,7.7484841 7.11228203,8.21601629 6.85555398,8.68631577 C6.83242656,8.72867237 6.83445192,8.80847221 6.85798989,8.85159124 C7.11477268,9.32183424 7.37601673,9.78956409 7.64311791,10.253623 C7.66958443,10.2996505 7.74247002,10.3431084 7.79433565,10.3437579 C8.31345729,10.3502243 8.83271577,10.3501396 9.35181003,10.3431084 C9.40290931,10.3424307 9.47393376,10.2958102 9.50075609,10.249105 C9.76750146,9.78482015 10.0287455,9.3170903 10.2851725,8.84662139 C10.3082999,8.80420832 10.3065209,8.72440848 10.2829829,8.68134593 C10.0259264,8.21124411 9.76435394,7.74368369 9.49692433,7.27979417 C9.47108731,7.23500912 9.39924177,7.19790474 9.34611713,7.1938385 C9.08730898,7.17395914 8.82759763,7.16650438 8.56774943,7.15464453 L8.56774943,7.15464453 Z M5.7644324,7.09921385 C5.71817756,6.77817904 5.66330126,6.46411895 5.62985545,6.14765865 C5.59049778,5.77531587 5.61058716,5.40452616 5.7396628,5.04901308 C5.93587638,4.50857106 6.38203032,4.26007899 6.92709845,4.38528511 C7.42210735,4.49899847 7.82529082,4.78739046 8.20827542,5.11155966 C8.33091917,5.21536157 8.4470763,5.3273242 8.56413663,5.43369574 C8.77228341,5.25687105 8.96225669,5.06262366 9.18239141,4.91683224 C9.46008468,4.73291987 9.74812369,4.54615548 10.0569363,4.43566123 C10.7705746,4.18036386 11.3227863,4.53669584 11.4734566,5.30447987 C11.5866304,5.88134856 11.4985547,6.44590561 11.3786752,7.00876839 C11.3729276,7.03573542 11.3676452,7.06281541 11.3599544,7.1005975 C11.5084899,7.15238551 11.6551095,7.19951429 11.7989374,7.25438021 C12.2113719,7.41169263 12.6058517,7.60353981 12.9360949,7.91203707 C13.1217711,8.08550148 13.2703614,8.28630001 13.3304379,8.54247275 C13.4193348,8.92159258 13.2897118,9.23734694 13.0440958,9.51001051 C12.7093367,9.88164735 12.2776066,10.0928374 11.8271282,10.2686455 C11.6786201,10.3266176 11.5266907,10.3751865 11.3669336,10.4313796 C11.4066471,10.6602464 11.4528746,10.8883791 11.4847056,11.1186578 C11.541662,11.5309005 11.5539784,11.9432844 11.44491,12.3503878 C11.2685121,13.0087789 10.7748443,13.3032985 10.1360896,13.1285916 C9.63826161,12.9924292 9.23518762,12.6870099 8.85039661,12.3510373 C8.75714795,12.2695997 8.66756683,12.1836723 8.57617931,12.0997215 C8.38158054,12.2665782 8.1973549,12.4339998 8.00349512,12.5884884 C7.7282925,12.8078109 7.43248048,12.9921186 7.0980224,13.1021893 C6.37795223,13.3391604 5.82190883,13.0041197 5.66926786,12.2424067 C5.56061004,11.700101 5.63114182,11.1664643 5.73906066,10.6343807 C5.75200654,10.5705634 5.76555456,10.5069155 5.78003315,10.4373942 C5.57462334,10.3615194 5.36562809,10.3062299 5.17661275,10.2094592 C4.87622998,10.0556483 4.58318231,9.88387813 4.29933086,9.69959867 C4.18328321,9.62426039 4.08773549,9.50552071 4.00280722,9.39081903 C3.70067279,8.98272728 3.70798051,8.52154859 4.01788794,8.11930204 C4.29577279,7.75862145 4.67295501,7.54056966 5.07468788,7.36504389 C5.30051551,7.26638125 5.5343351,7.1871744 5.7644324,7.09921385 L5.7644324,7.09921385 Z" id="Fill-1" fill="#FFFFFF" transform="translate(8.569624, 8.765754) rotate(-420.000000) translate(-8.569624, -8.765754) "></path>
                        <path d="M8.61035664,9.66714751 C8.11705545,9.6687143 7.72350965,9.27046396 7.72501336,8.77122667 C7.72648869,8.28025065 8.11575034,7.88607397 8.60437018,7.88071839 C9.0947207,7.87533431 9.49575667,8.27597758 9.49680642,8.7722522 C9.49785618,9.2719168 9.10794198,9.66555223 8.61035664,9.66714751 Z" id="Fill-4" fill="#FFFFFF" transform="translate(8.610909, 8.773908) rotate(-420.000000) translate(-8.610909, -8.773908) "></path>
                    </g>
                    <g id="icon" transform="translate(0.039682, 19.328319)">
                        <path d="M9.46210717,17.223055 C14.1745394,17.223055 17.9947204,13.3712054 17.9947204,8.61970798 C17.9947204,3.86821061 14.1745394,0.0163609338 9.46210717,0.0163609338 C4.74967498,0.0163609338 0.9294939,3.86821061 0.9294939,8.61970798 C0.9294939,13.3712054 4.74967498,17.223055 9.46210717,17.223055 Z" id="Oval-19" fill-opacity="0.7" fill="#E73536" transform="translate(9.462107, 8.619708) rotate(-90.000000) translate(-9.462107, -8.619708) "></path>
                        <path d="M9.43446728,5.86494946 C9.24016958,6.10525259 9.06377168,6.3233891 8.86993927,6.56307099 L9.42863753,6.56307099 L9.99946058,6.56307099 C9.8047797,6.32251373 9.62827232,6.1044337 9.43446728,5.86494946 L9.43446728,5.86494946 Z M11.4151598,8.09457281 C11.5235165,7.78774158 11.6200495,7.51448501 11.7231239,7.22259154 C11.42088,7.16916575 11.1440352,7.12022975 10.848059,7.06793346 C11.0280697,7.39631009 11.1929176,7.69715492 11.3579297,7.99791504 C11.368987,8.01807679 11.3813034,8.03750435 11.4151598,8.09457281 L11.4151598,8.09457281 Z M8.0271706,7.06426256 C7.71975382,7.11986266 7.44441435,7.16964579 7.14586536,7.22363634 C7.24984295,7.51685698 7.3465402,7.78960527 7.45325477,8.09050658 C7.65080947,7.73725251 7.83062858,7.41568118 8.0271706,7.06426256 L8.0271706,7.06426256 Z M10.000528,10.6151295 L8.86780443,10.6151295 C9.06396327,10.8557715 9.24345395,11.0759976 9.43558944,11.3117262 C9.6295587,11.0725526 9.80664084,10.8541902 10.000528,10.6151295 L10.000528,10.6151295 Z M11.4157345,9.08735511 C11.2179609,9.44176693 11.0395924,9.76141809 10.8436525,10.1125543 C11.1500839,10.0572648 11.4286257,10.0070299 11.7240819,9.95371707 C11.6188726,9.65815269 11.5224765,9.3872681 11.4157345,9.08735511 L11.4157345,9.08735511 Z M7.45281686,9.08647974 C7.34541804,9.39037425 7.24959663,9.6615977 7.14589273,9.95510072 C7.4442775,10.0081029 7.72123178,10.0572931 8.02519998,10.1113119 C7.82731685,9.75701301 7.64916729,9.43803955 7.45281686,9.08647974 L7.45281686,9.08647974 Z M9.72658439,5.56097024 C9.91973256,5.80308058 10.1182178,6.00997847 10.2671091,6.24963213 C10.4347487,6.51950017 10.6348214,6.66006761 10.9542535,6.6719557 C11.2422926,6.68268604 11.5279778,6.76053748 11.8429212,6.81351147 C11.8871507,6.51303373 11.9440524,6.21427849 11.9719695,5.91269947 C12.0010635,5.59841348 11.9945495,5.28178375 11.8718784,4.98266142 C11.7518074,4.68992082 11.5431406,4.55858711 11.2428673,4.608342 C10.6135278,4.71259572 10.1782123,5.14683561 9.72658439,5.56097024 L9.72658439,5.56097024 Z M9.14618193,5.5387189 C8.89183505,5.33549192 8.63986933,5.11238558 8.36592573,4.92319275 C8.19086895,4.802307 7.99057727,4.70677874 7.78878027,4.6434415 C7.34177787,4.5031282 7.0517956,4.68376499 6.94343885,5.15364091 C6.81398003,5.71489414 6.92135148,6.26267796 7.03890446,6.80427773 C7.06049917,6.80984056 7.06966803,6.81520573 7.07785158,6.81387856 C7.47810649,6.74952476 7.87836139,6.6851992 8.27826049,6.61850167 C8.30664289,6.61375773 8.34077295,6.59822697 8.35782429,6.57597564 C8.61455234,6.24124552 8.86887185,5.90453877 9.14618193,5.5387189 L9.14618193,5.5387189 Z M12.1294276,9.83895891 C12.2192276,9.81024114 12.3151312,9.78355648 12.4082977,9.74904996 C12.8381393,9.58981737 13.2610837,9.41485637 13.5896026,9.07007362 C13.888781,8.75609824 13.8954593,8.42907702 13.5965545,8.11676767 C13.1894571,7.69142266 12.6586486,7.50889394 12.1303581,7.33847921 C11.9689041,7.75295269 11.8126777,8.15175422 11.6595988,8.55182646 C11.6496089,8.57794636 11.6566976,8.61668854 11.6674813,8.64481332 C11.8177137,9.03678133 11.9699989,9.42787396 12.1294276,9.83895891 L12.1294276,9.83895891 Z M6.73967122,9.83907187 C6.8986346,9.42976589 7.05130295,9.03884268 7.20109747,8.64676173 C7.21314015,8.61527665 7.21686243,8.57116931 7.20525767,8.54075727 C7.05409466,8.14469479 6.89945569,7.7500442 6.74024599,7.34104884 C6.27983242,7.47819952 5.82442751,7.6488684 5.43525735,7.96349324 C4.92478455,8.37618775 4.92752153,8.80997584 5.4401839,9.21959243 C5.82768451,9.52921919 6.27977768,9.69723372 6.73967122,9.83907187 L6.73967122,9.83907187 Z M11.8297564,10.3692353 C11.4802997,10.4260214 11.1498924,10.5007385 10.8158996,10.5264348 C10.6002535,10.5430386 10.4762686,10.6367879 10.3569092,10.8096311 C10.1651022,11.087321 9.94494008,11.3441714 9.7219589,11.6287513 C9.93776921,11.8093316 10.1413179,12.0070522 10.3710867,12.1638564 C10.5851454,12.3099584 10.8172133,12.442224 11.0589154,12.5278408 C11.5132529,12.6887676 11.816701,12.5012126 11.9267274,12.0208887 C12.0541882,11.4645206 11.9484315,10.9211419 11.8297564,10.3692353 L11.8297564,10.3692353 Z M7.0357022,10.3644067 C6.99806883,10.5706269 6.95493413,10.7668791 6.92761914,10.9654469 C6.87679356,11.334627 6.85281768,11.7056427 6.95356565,12.0706719 C7.06892905,12.4887598 7.3357839,12.6562942 7.74096535,12.5506851 C8.30979041,12.4024088 8.72786301,12.0102149 9.13695834,11.6190093 C8.90330297,11.3172891 8.67112556,11.0334998 8.45818908,10.7350834 C8.36581625,10.6056417 8.2702959,10.5344261 8.11231783,10.5386618 C8.01345837,10.5413161 7.91350412,10.5166081 7.8146994,10.4999196 C7.56010619,10.4569418 7.30589616,10.4115637 7.0357022,10.3644067 L7.0357022,10.3644067 Z M9.43197664,6.97678206 C9.17223792,6.98872662 8.9124992,6.99606843 8.65371842,7.01642784 C8.60127802,7.02055054 8.5314031,7.06098698 8.50521027,7.10653445 C8.2381091,7.57062163 7.97650923,8.03815382 7.71978119,8.5084533 C7.69665376,8.5508099 7.69867912,8.63060974 7.72221709,8.67372876 C7.97899988,9.14397177 8.24024393,9.61170162 8.50734511,10.0757606 C8.53381164,10.1217881 8.60669722,10.1652459 8.65856286,10.1658954 C9.17768449,10.1723619 9.69694297,10.1722771 10.2160372,10.1652459 C10.2671365,10.1645682 10.338161,10.1179477 10.3649833,10.0712425 C10.6317287,9.60695768 10.8929727,9.13922783 11.1493997,8.66875892 C11.1725271,8.62634584 11.1707481,8.546546 11.1472101,8.50348346 C10.8901536,8.03338164 10.6285811,7.56582122 10.3611515,7.1019317 C10.3353145,7.05714665 10.263469,7.02004227 10.2103443,7.01597603 C9.95153618,6.99609667 9.69182483,6.9886419 9.43197664,6.97678206 L9.43197664,6.97678206 Z M6.62865961,6.92135138 C6.58240476,6.60031657 6.52752846,6.28625647 6.49408265,5.96979617 C6.45472498,5.59745339 6.47481436,5.22666369 6.60389,4.8711506 C6.80010358,4.33070858 7.24625752,4.08221651 7.79132565,4.20742263 C8.28633456,4.32113599 8.68951802,4.60952798 9.07250263,4.93369719 C9.19514638,5.0374991 9.3113035,5.14946172 9.42836383,5.25583327 C9.63651061,5.07900857 9.8264839,4.88476119 10.0466186,4.73896976 C10.3243119,4.55505739 10.6123509,4.36829301 10.9211635,4.25779875 C11.6348018,4.00250139 12.1870135,4.35883337 12.3376838,5.12661739 C12.4508576,5.70348609 12.3627819,6.26804313 12.2429024,6.83090591 C12.2371548,6.85787295 12.2318724,6.88495294 12.2241816,6.92273503 C12.3727171,6.97452304 12.5193367,7.02165182 12.6631646,7.07651774 C13.0755991,7.23383016 13.4700789,7.42567733 13.8003221,7.73417459 C13.9859983,7.907639 14.1345886,8.10843754 14.1946651,8.36461027 C14.283562,8.74373011 14.153939,9.05948447 13.908323,9.33214804 C13.5735639,9.70378488 13.1418338,9.9149749 12.6913554,10.090783 C12.5428473,10.1487551 12.3909179,10.197324 12.2311608,10.2535171 C12.2708743,10.482384 12.3171018,10.7105166 12.3489328,10.9407953 C12.4058892,11.353038 12.4182056,11.7654219 12.3091372,12.1725254 C12.1327393,12.8309164 11.6390715,13.125436 11.0003168,12.9507291 C10.5024888,12.8145668 10.0994148,12.5091474 9.71462382,12.1731748 C9.62137515,12.0917372 9.53179403,12.0058098 9.44040651,11.921859 C9.24580774,12.0887158 9.0615821,12.2561373 8.86772232,12.410626 C8.5925197,12.6299484 8.29670768,12.8142561 7.96224961,12.9243268 C7.24217943,13.1612979 6.68613603,12.8262572 6.53349506,12.0645443 C6.42483724,11.5222386 6.49536903,10.9886018 6.60328787,10.4565182 C6.61623375,10.3927009 6.62978176,10.329053 6.64426035,10.2595317 C6.43885054,10.183657 6.2298553,10.1283675 6.04083995,10.0315967 C5.74045719,9.8777858 5.44740951,9.70601566 5.16355806,9.52173619 C5.04751041,9.44639792 4.95196269,9.32765824 4.86703443,9.21295656 C4.5649,8.80486481 4.57220772,8.34368611 4.88211515,7.94143957 C5.16,7.58075898 5.53718222,7.36270718 5.93891509,7.18718142 C6.16474271,7.08851877 6.3985623,7.00931193 6.62865961,6.92135138 L6.62865961,6.92135138 Z" id="Fill-1" fill="#FFFFFF" transform="translate(9.433851, 8.587891) rotate(-60.000000) translate(-9.433851, -8.587891) "></path>
                        <path d="M9.46155501,9.51294706 C8.96825382,9.51451385 8.57470802,9.11626351 8.57621172,8.61702622 C8.57768706,8.1260502 8.96694871,7.73187352 9.45556855,7.72651794 C9.94591907,7.72113387 10.346955,8.12177713 10.3480048,8.61805176 C10.3490545,9.11771635 9.95914035,9.51135178 9.46155501,9.51294706 Z" id="Fill-4" fill="#FFFFFF" transform="translate(9.462107, 8.619708) rotate(-90.000000) translate(-9.462107, -8.619708) "></path>
                    </g>
                    <g id="icon" transform="translate(19.279341, 0.000000)">
                        <path d="M13.6236176,1.32857051 C9.26200481,-1.21176968 3.70253553,0.264848105 1.2061954,4.62668865 C-1.29014472,8.9885292 0.221957532,14.5838522 4.58357032,17.1241924 C8.9451831,19.6645326 14.5046524,18.1879148 17.0009925,13.8260743 C19.4973326,9.46423374 17.9852304,3.86891071 13.6236176,1.32857051 Z" id="Oval-19" fill-opacity="0.7" fill="#E73536"></path>
                        <path d="M9.08005831,6.36157583 C8.8745663,6.61942891 8.68800538,6.85349648 8.48300547,7.11068295 L9.07389268,7.11068295 L9.67760324,7.11068295 C9.47170598,6.85255718 9.28502927,6.61855021 9.08005831,6.36157583 L9.08005831,6.36157583 Z M11.1748668,8.75403422 C11.2894664,8.42479433 11.3915611,8.13158114 11.5005741,7.81836995 C11.1809166,7.76104234 10.8881217,7.70853242 10.575093,7.6524168 C10.7654749,8.0047756 10.9398203,8.3275919 11.1143394,8.65031729 C11.1260339,8.6719515 11.1390598,8.6927979 11.1748668,8.75403422 L11.1748668,8.75403422 Z M7.59168136,7.6484778 C7.266553,7.70813852 6.97535007,7.76155744 6.65960042,7.81949105 C6.7695686,8.13412634 6.87183698,8.42679413 6.98469983,8.74967102 C7.19363648,8.37061791 7.38381573,8.02556141 7.59168136,7.6484778 L7.59168136,7.6484778 Z M9.67873216,11.4586736 L8.48074763,11.4586736 C8.68820801,11.7168903 8.87803989,11.9532 9.08124512,12.2061445 C9.28638977,11.9495034 9.47367435,11.7151935 9.67873216,11.4586736 L9.67873216,11.4586736 Z M11.1754747,9.81932192 C10.9663065,10.1996173 10.7776614,10.5426134 10.5704326,10.919394 C10.8945189,10.8600666 11.1891085,10.8061629 11.5015872,10.7489565 C11.3903164,10.4318063 11.2883665,10.1411383 11.1754747,9.81932192 L11.1754747,9.81932192 Z M6.98423668,9.81838262 C6.87065017,10.1444713 6.76930808,10.4355029 6.65962936,10.7504412 C6.97520534,10.8073143 7.26811612,10.8600969 7.5895972,10.9180608 C7.38031319,10.5378866 7.19189968,10.1956177 6.98423668,9.81838262 L6.98423668,9.81838262 Z M9.38900551,6.03539624 C9.59328176,6.29518852 9.80320259,6.51719668 9.96067217,6.77435285 C10.1379702,7.06393004 10.3495699,7.21476348 10.6874058,7.22751978 C10.99204,7.23903379 11.2941847,7.32257091 11.6272734,7.37941373 C11.6740511,7.05699133 11.7342312,6.73641724 11.7637567,6.41281315 C11.7945269,6.07557405 11.7876377,5.73582006 11.6578989,5.41485206 C11.5309101,5.10073187 11.3102212,4.95980653 10.9926479,5.01319515 C10.3270495,5.12506278 9.86665357,5.59101631 9.38900551,6.03539624 L9.38900551,6.03539624 Z M8.77516363,6.01151983 C8.50616276,5.79345067 8.23968024,5.5540503 7.94995359,5.35104025 C7.76481105,5.22132591 7.55297974,5.11882098 7.33955636,5.05085806 C6.86680027,4.90029732 6.56011091,5.09412647 6.44551127,5.59831862 C6.30859379,6.20056159 6.42215135,6.78835146 6.54647705,7.36950562 C6.56931593,7.37547472 6.57901305,7.38123173 6.58766808,7.37980763 C7.01098335,7.31075391 7.43429862,7.24173049 7.85723759,7.17016187 C7.88725522,7.16507146 7.92335165,7.14840646 7.94138539,7.12453005 C8.21290462,6.76535375 8.48187655,6.40405645 8.77516363,6.01151983 L8.77516363,6.01151983 Z M11.9302866,10.6258173 C12.0252604,10.5950021 12.1266893,10.5663686 12.2252236,10.529342 C12.6798302,10.3584803 13.1271422,10.1707414 13.4745884,9.80077832 C13.7910038,9.46387252 13.7980668,9.11296812 13.4819408,8.77785003 C13.0513889,8.321441 12.4899983,8.12558174 11.9312707,7.94272119 C11.7605147,8.38746471 11.5952874,8.81539174 11.433389,9.24468226 C11.4228235,9.27270977 11.4303207,9.31428138 11.4417256,9.34446019 C11.6006136,9.76505461 11.7616725,10.1847097 11.9302866,10.6258173 L11.9302866,10.6258173 Z M6.23000373,10.6259385 C6.39812566,10.1867398 6.55958987,9.76726651 6.71801468,9.34655089 C6.73075119,9.31276638 6.73468793,9.26543777 6.72241457,9.23280466 C6.56254242,8.80781673 6.39899406,8.38434381 6.23061161,7.94547849 C5.74367169,8.09264563 5.26202899,8.27577888 4.8504371,8.61338158 C4.31055382,9.05621621 4.31344848,9.52168494 4.85564749,9.96121686 C5.26547364,10.2934565 5.74361379,10.4737415 6.23000373,10.6259385 L6.23000373,10.6259385 Z M11.6133501,11.1948211 C11.2437597,11.2557544 10.8943162,11.3359283 10.5410807,11.3635013 C10.3130103,11.3813177 10.1818822,11.4819137 10.055646,11.6673801 C9.85278814,11.9653503 9.61994159,12.2409592 9.38411353,12.5463227 C9.61235758,12.7400913 9.82763354,12.9522519 10.0706404,13.1205079 C10.2970318,13.2772801 10.5424701,13.4192054 10.7980977,13.511075 C11.2786115,13.6837547 11.5995426,13.4825021 11.7159079,12.9670989 C11.8507123,12.3700979 11.7388626,11.7870348 11.6133501,11.1948211 L11.6133501,11.1948211 Z M6.5430903,11.1896398 C6.50328871,11.4109208 6.45766884,11.6215058 6.42878012,11.8345755 C6.37502626,12.2307178 6.34966903,12.6288296 6.45622151,13.0205178 C6.57823149,13.4691398 6.86046096,13.6489097 7.28898662,13.5355877 C7.89058408,13.3764823 8.3327436,12.9556455 8.76540862,12.5358692 C8.51829139,12.2121136 8.27273727,11.9075985 8.04753262,11.587388 C7.9498378,11.4484928 7.84881412,11.3720762 7.68173427,11.3766212 C7.5771791,11.3794694 7.47146607,11.3529569 7.3669688,11.3350496 C7.09770741,11.2889329 6.82885126,11.2402408 6.5430903,11.1896398 L6.5430903,11.1896398 Z M9.07742417,7.55460838 C8.80272081,7.56742528 8.52801745,7.57530328 8.25432722,7.59714959 C8.19886551,7.60157339 8.12496481,7.644963 8.0972629,7.69383692 C7.8147729,8.19181756 7.53810118,8.6934948 7.26658195,9.19814145 C7.24212206,9.24359146 7.24426411,9.32921928 7.26915819,9.3754874 C7.54073532,9.88007344 7.81703074,10.3819628 8.09952074,10.8799131 C8.12751211,10.9293021 8.20459694,10.9759339 8.25945077,10.9766308 C8.80848118,10.9835695 9.35765633,10.9834786 9.90665779,10.9759339 C9.96070112,10.9752067 10.0358176,10.9251813 10.0641853,10.8750651 C10.3462989,10.3768724 10.6225944,9.87498304 10.8937952,9.3701546 C10.9182551,9.32464398 10.9163735,9.23901616 10.8914795,9.19280864 C10.6196129,8.6883741 10.3429701,8.18666656 10.0601327,7.68889801 C10.0328071,7.6408422 9.95682227,7.60102799 9.90063689,7.59666479 C9.62691772,7.57533358 9.35224331,7.56733438 9.07742417,7.55460838 L9.07742417,7.55460838 Z M6.11259627,7.49512946 C6.06367649,7.15064866 6.00563853,6.81365196 5.97026577,6.47407977 C5.92864054,6.07454385 5.94988736,5.67667444 6.08639958,5.29519733 C6.29391785,4.71528546 6.76577659,4.44864539 7.34224839,4.58299563 C7.86577684,4.70501376 8.29218939,5.01446775 8.69723935,5.36231185 C8.82694912,5.47369468 8.94979855,5.59383422 9.07360321,5.70797435 C9.29374221,5.51823569 9.49466065,5.30980193 9.72747826,5.15336299 C10.0211706,4.95601903 10.3258047,4.75561478 10.6524094,4.63705084 C11.4071634,4.36310846 11.9911902,4.74546427 12.1505413,5.56932151 C12.2702356,6.18832039 12.1770854,6.79410846 12.0502992,7.39807853 C12.0442204,7.42701504 12.0386337,7.45607275 12.0304997,7.49661416 C12.187593,7.55218438 12.34266,7.60275509 12.4947745,7.66162801 C12.930971,7.83042935 13.3481785,8.03628761 13.6974483,8.36731521 C13.8938222,8.55344816 14.0509733,8.76891152 14.1145111,9.0437932 C14.2085297,9.45060112 14.0714386,9.78941582 13.8116717,10.0819927 C13.4576257,10.4807711 13.0010218,10.7073849 12.5245895,10.8960327 C12.3675252,10.9582386 12.2068425,11.0103547 12.0378811,11.0706517 C12.0798827,11.3162333 12.1287735,11.561027 12.1624384,11.8081236 C12.2226763,12.2504734 12.2357023,12.6929747 12.12035,13.12981 C11.9337891,13.836285 11.411679,14.1523141 10.736123,13.9648479 C10.209613,13.8187413 9.78331627,13.4910164 9.37635584,13.1305069 C9.27773473,13.0431216 9.18299246,12.9509187 9.08633972,12.8608368 C8.8805293,13.0398795 8.68568965,13.2195283 8.48066079,13.3852996 C8.1896026,13.6206398 7.8767476,13.818408 7.52301999,13.9365174 C6.76146355,14.1907951 6.17338416,13.8312855 6.0119489,13.0139427 C5.89703084,12.4320311 5.97162626,11.8594215 6.08576276,11.2884784 C6.09945451,11.2200004 6.11378308,11.1517042 6.12909584,11.0771056 C5.91185151,10.9956895 5.69081517,10.936362 5.49090986,10.8325239 C5.17322078,10.6674798 4.8632894,10.4831648 4.56308407,10.285427 C4.44035043,10.2045865 4.33929781,10.077175 4.24947647,9.95409636 C3.92993481,9.51620064 3.93766355,9.0213409 4.26542605,8.58971727 C4.55932101,8.20269526 4.95823429,7.96871859 5.38311267,7.78037374 C5.62195118,7.67450551 5.86924209,7.58951399 6.11259627,7.49512946 L6.11259627,7.49512946 Z" id="Fill-1" fill="#FFFFFF" transform="translate(9.079407, 9.283381) rotate(-420.000000) translate(-9.079407, -9.283381) "></path>
                        <path d="M9.10301309,10.1747668 C8.58406184,10.1764304 8.17005294,9.75359306 8.17163484,9.22353414 C8.17318689,8.70224652 8.58268888,8.28373437 9.09671535,8.27804814 C9.6125625,8.27233167 10.034451,8.69770963 10.0355554,9.22462299 C10.0366597,9.7551356 9.62647124,10.1730731 9.10301309,10.1747668 Z" id="Fill-4" fill="#FFFFFF" transform="translate(9.103594, 9.226381) rotate(-420.000000) translate(-9.103594, -9.226381) "></path>
                    </g>
                </g>
                <path d="M71.4935263,22.7786999 C72.653781,22.7786999 73.6021489,22.3172015 74.3386584,21.3941909 L75.8520265,22.9612725 C74.6514151,24.320431 73.2364301,25 71.6070289,25 C69.9776278,25 68.6357881,24.4827161 67.5814697,23.4481328 C66.5271513,22.4135495 66,21.1076612 66,19.5304288 C66,17.9531964 66.5372403,16.6371653 67.6117371,15.582296 C68.6862338,14.5274267 70.0003287,14 71.554061,14 C73.2893985,14 74.7422174,14.6643548 75.9125613,15.9930844 L74.4445942,17.6666667 C73.6979955,16.7335131 72.7698057,16.2669433 71.6599968,16.2669433 C70.7721497,16.2669433 70.012951,16.5585494 69.3823778,17.1417704 C68.7518046,17.7249914 68.4365227,18.5110601 68.4365227,19.5 C68.4365227,20.4889399 68.7341488,21.2826157 69.3294099,21.8810512 C69.924671,22.4794866 70.6460359,22.7786999 71.4935263,22.7786999 L71.4935263,22.7786999 Z M87.237721,14.2434302 L89.5985752,14.2434302 L89.5985752,24.8782849 L87.237721,24.8782849 L87.237721,20.6943292 L83.0305576,20.6943292 L83.0305576,24.8782849 L80.6697033,24.8782849 L80.6697033,14.2434302 L83.0305576,14.2434302 L83.0305576,18.6860304 L87.237721,18.6860304 L87.237721,14.2434302 Z M102.526224,24.8782849 L101.542534,22.5809129 L97.1083657,22.5809129 L96.1246765,24.8782849 L93.6124854,24.8782849 L98.1828571,14.2434302 L100.468043,14.2434302 L105.038415,24.8782849 L102.526224,24.8782849 Z M98.8854895,17.4080221 L97.5537255,20.4965422 L100.20212,20.4965422 L98.8854895,17.4080221 Z M108.772949,14.2434302 L111.133804,14.2434302 L111.133804,24.8782849 L108.772949,24.8782849 L108.772949,14.2434302 Z M123.645874,14.2434302 L126.006728,14.2434302 L126.006728,24.8782849 L123.645874,24.8782849 L118.606358,18.2143845 L118.606358,24.8782849 L116.245503,24.8782849 L116.245503,14.2434302 L118.455021,14.2434302 L123.645874,21.0899032 L123.645874,14.2434302 Z M145.087658,17.7731674 C145.087658,19.4771869 144.416738,20.5776831 143.074878,21.0746888 L145.75354,24.8782849 L142.847873,24.8782849 L140.502152,21.4854772 L138.867715,21.4854772 L138.867715,24.8782849 L136.50686,24.8782849 L136.50686,14.2434302 L140.517286,14.2434302 C142.161821,14.2434302 143.334669,14.5223577 144.035867,15.0802213 C144.737064,15.6380849 145.087658,16.5357246 145.087658,17.7731674 L145.087658,17.7731674 Z M142.242526,19.0359613 C142.535112,18.772244 142.681402,18.3538526 142.681402,17.7807746 C142.681402,17.2076965 142.530067,16.8146622 142.227392,16.6016598 C141.924717,16.3886573 141.395043,16.2821577 140.638355,16.2821577 L138.867715,16.2821577 L138.867715,19.4315353 L140.592954,19.4315353 C141.400088,19.4315353 141.94994,19.2996786 142.242526,19.0359613 L142.242526,19.0359613 Z M157.421365,14.2434302 L157.421365,16.3582296 L152.154844,16.3582296 L152.154844,18.549101 L156.891686,18.549101 L156.891686,20.5726141 L152.154844,20.5726141 L152.154844,22.7786999 L157.587835,22.7786999 L157.587835,24.8782849 L149.79399,24.8782849 L149.79399,14.2434302 L157.421365,14.2434302 Z M170.407988,24.8782849 L169.424299,22.5809129 L164.99013,22.5809129 L164.006441,24.8782849 L161.49425,24.8782849 L166.064621,14.2434302 L168.349807,14.2434302 L172.920179,24.8782849 L170.407988,24.8782849 Z M167.214781,17.4080221 L165.883017,20.4965422 L168.531412,20.4965422 L167.214781,17.4080221 Z M180.924093,22.7786999 C182.084348,22.7786999 183.032716,22.3172015 183.769226,21.3941909 L185.282594,22.9612725 C184.081982,24.320431 182.666997,25 181.037596,25 C179.408195,25 178.066355,24.4827161 177.012037,23.4481328 C175.957718,22.4135495 175.430567,21.1076612 175.430567,19.5304288 C175.430567,17.9531964 175.967807,16.6371653 177.042304,15.582296 C178.116801,14.5274267 179.430896,14 180.984628,14 C182.719966,14 184.172785,14.6643548 185.343128,15.9930844 L183.875161,17.6666667 C183.128563,16.7335131 182.200373,16.2669433 181.090564,16.2669433 C180.202717,16.2669433 179.443518,16.5585494 178.812945,17.1417704 C178.182372,17.7249914 177.86709,18.5110601 177.86709,19.5 C177.86709,20.4889399 178.164716,21.2826157 178.759977,21.8810512 C179.355238,22.4794866 180.076603,22.7786999 180.924093,22.7786999 L180.924093,22.7786999 Z M194.132313,16.2973721 L194.132313,24.8782849 L191.771458,24.8782849 L191.771458,16.2973721 L188.77499,16.2973721 L188.77499,14.2434302 L197.128782,14.2434302 L197.128782,16.2973721 L194.132313,16.2973721 Z" id="CHAIN-REACT" fill="#FFFFFF"></path>
            </g>
        </g>
    </g>
</svg>